<svg xmlns="http://www.w3.org/2000/svg" width="760" height="146" viewBox="0 0 760 146" role="img" aria-labelledby="title desc">
  <title id="title">Moquent Codex usage</title>
  <desc id="desc">Selected account-wide Codex usage statistics.</desc>
  <style>
    text { font-family: ui-monospace,SFMono-Regular,Menlo,Consolas,Liberation Mono,monospace; }
    .name { fill: #F0F6FC; font-size: 17px; font-weight: 650; letter-spacing: .3px; }
    .identity { fill: #8B949E; font-size: 11px; }
    .avatar { fill: #FFFFFF; font-size: 15px; font-weight: 600; }
    .stat { fill: #F0F6FC; font-size: 15px; font-weight: 700; }
    .label { fill: #8B949E; font-size: 10px; }
    .section { fill: #F0F6FC; font-size: 13px; font-weight: 650; }
    .month { fill: #8B949E; font-size: 9px; }
  </style>
  <rect x="1" y="1" width="758" height="144" rx="12" fill="#0D1117" stroke="#30363D" />
  <circle cx="48" cy="35" r="22" fill="#0077B6" />
    <text x="48" y="42" class="avatar" text-anchor="middle">MO</text>
    <text x="82" y="32" class="name">Moquent</text>
    <text x="82" y="52" class="identity">@moquent · Pro</text>
    <rect x="20" y="66" width="720" height="68" rx="10" fill="#161B22" stroke="#30363D" />
    <path d="M140 82v42" stroke="#30363D" />
    <path d="M260 82v42" stroke="#30363D" />
    <path d="M380 82v42" stroke="#30363D" />
    <path d="M500 82v42" stroke="#30363D" />
    <path d="M620 82v42" stroke="#30363D" />
    <text x="80" y="100" class="stat" text-anchor="middle">5.1B</text>
    <text x="80" y="118" class="label" text-anchor="middle">Lifetime tokens</text>
    <text x="200" y="100" class="stat" text-anchor="middle">976.5M</text>
    <text x="200" y="118" class="label" text-anchor="middle">Peak day</text>
    <text x="320" y="100" class="stat" text-anchor="middle">12h 27m</text>
    <text x="320" y="118" class="label" text-anchor="middle">Longest session</text>
    <text x="440" y="100" class="stat" text-anchor="middle">4 days</text>
    <text x="440" y="118" class="label" text-anchor="middle">Current streak</text>
    <text x="560" y="100" class="stat" text-anchor="middle">9 days</text>
    <text x="560" y="118" class="label" text-anchor="middle">Longest streak</text>
    <text x="680" y="100" class="stat" text-anchor="middle">6 days</text>
    <text x="680" y="118" class="label" text-anchor="middle">Active days</text>
</svg>